<svg id="Layer_1_copy_51" data-name="Layer 1 copy 51" xmlns="http://www.w3.org/2000/svg" viewBox="0 0 191.26244 75"><defs><style>.cls-1{fill:none;}.cls-2{fill:#f76a0a;}.cls-3{fill:#f9b026;}.cls-4{fill:#0b5bab;}.cls-5{fill:#20afe2;}</style></defs><title>+integrity colour_landscape</title><rect class="cls-1" width="191.26244" height="75"/><path class="cls-2" d="M118.0368,55.72737a3.19494,3.19494,0,1,1,6.38987,0v2.87227a5.57187,5.57187,0,0,0,.2364,2.2821h-1.14924a1.825,1.825,0,0,1-1.82568-2.10111V56.15119a0.45642,0.45642,0,0,0-.91284,0l0.00157,5.28142a2.73852,2.73852,0,0,1-2.73852,2.73852h-0.924a1.87234,1.87234,0,0,0,.924-1.82568Z" transform="translate(-83.79715 -27.06213)"/><path class="cls-3" d="M112.33156,67.82231a3.19494,3.19494,0,1,1,0-6.38987h2.87227a5.57187,5.57187,0,0,0,2.2821-.2364v1.14924a1.825,1.825,0,0,1-2.10111,1.82568h-2.62944a0.45642,0.45642,0,1,0,0,.91284l5.28142-.00157a2.73852,2.73852,0,0,1,2.73852,2.73852v0.924a1.87234,1.87234,0,0,0-1.82568-.924Z" transform="translate(-83.79715 -27.06213)"/><path class="cls-4" d="M124.42683,73.52772a3.19494,3.19494,0,0,1-6.38987,0V70.65545a5.57187,5.57187,0,0,0-.2364-2.2821h1.14924a1.825,1.825,0,0,1,1.82568,2.10111v2.62944a0.45642,0.45642,0,1,0,.91284,0l-0.00157-5.28142a2.73852,2.73852,0,0,1,2.73852-2.73852h0.924a1.87234,1.87234,0,0,0-.924,1.82568Z" transform="translate(-83.79715 -27.06213)"/><path class="cls-5" d="M130.13191,61.431a3.19494,3.19494,0,1,1,0,6.38987h-2.87227a5.57187,5.57187,0,0,0-2.2821.2364V66.90807a1.825,1.825,0,0,1,2.10111-1.82568h2.62944a0.45642,0.45642,0,0,0,0-.91284l-5.28142.00157a2.73852,2.73852,0,0,1-2.73852-2.73852v-0.924a1.87234,1.87234,0,0,0,1.82568.924Z" transform="translate(-83.79715 -27.06213)"/><path class="cls-5" d="M236.172,83.23828a1.83789,1.83789,0,1,1,0-3.67578,3.41687,3.41687,0,0,0,3.208-2.20605l0.92383-2.375L234.8419,60.11035a2.53563,2.53563,0,0,1-.17383-0.84766,1.849,1.849,0,0,1,1.90137-1.77441,1.73878,1.73878,0,0,1,1.69727,1.21582l3.92871,11.24707,4.0791-11.25a1.67891,1.67891,0,0,1,1.665-1.21289,1.849,1.849,0,0,1,1.90137,1.77441,2.26776,2.26776,0,0,1-.13965.68262l-6.93359,18.60645A6.94835,6.94835,0,0,1,236.172,83.23828Z" transform="translate(-83.79715 -27.06213)"/><path class="cls-5" d="M138.21592,76.72266a1.77951,1.77951,0,0,1-1.83789-1.83789V59.16309a1.8381,1.8381,0,0,1,3.67578,0V74.88477A1.77951,1.77951,0,0,1,138.21592,76.72266Zm0-21.85156a2.34619,2.34619,0,1,1,2.3457-2.34668A2.37754,2.37754,0,0,1,138.21592,54.8711Z" transform="translate(-83.79715 -27.06213)"/><path class="cls-5" d="M155.41612,76.752a1.77974,1.77974,0,0,1-1.83887-1.83789V64.11524a3.40234,3.40234,0,0,0-6.80469,0V74.91406a1.83809,1.83809,0,0,1-3.67578,0V64.11524a7.07861,7.07861,0,1,1,14.15723,0V74.91406A1.77951,1.77951,0,0,1,155.41612,76.752Z" transform="translate(-83.79715 -27.06213)"/><path class="cls-5" d="M167.10557,77.22266a5.42461,5.42461,0,0,1-5.71289-5.36426V61.18262H159.3878a1.83789,1.83789,0,0,1,0-3.67578h2.00488V54.35742a1.8381,1.8381,0,0,1,3.67578,0v3.14941h4.7373a1.83789,1.83789,0,0,1,0,3.67578h-4.7373V71.8584a1.753,1.753,0,0,0,2.03711,1.68652,2.92235,2.92235,0,0,0,1.73242-.64062,2.34816,2.34816,0,0,1,1.31641-.53418,1.86535,1.86535,0,0,1,.84668,3.53223A6.64049,6.64049,0,0,1,167.10557,77.22266Z" transform="translate(-83.79715 -27.06213)"/><path class="cls-5" d="M179.85167,77.07031a7.34006,7.34006,0,0,1-7.39648-7.0791v-5.876a7.07861,7.07861,0,1,1,14.15723,0v2.22363a1.8629,1.8629,0,0,1-1.83887,1.83789H176.131v1.81445a3.71417,3.71417,0,0,0,3.7207,3.40234,3.80464,3.80464,0,0,0,2.89941-1.12988,1.728,1.728,0,0,1,1.45117-.80664,1.94433,1.94433,0,0,1,1.90137,1.83789,1.7825,1.7825,0,0,1-.36328,1.06348h0.001a2.96883,2.96883,0,0,1-.44141.543A7.42148,7.42148,0,0,1,179.85167,77.07031ZM176.131,64.501h6.80566V64.11524a3.40283,3.40283,0,1,0-6.80566,0V64.501Z" transform="translate(-83.79715 -27.06213)"/><path class="cls-5" d="M207.26475,76.752a1.77951,1.77951,0,0,1-1.83789-1.83789V64.33789c0-3.63477,1.99219-7.30176,6.44336-7.30176a6.863,6.863,0,0,1,4.59375,1.82324,1.91284,1.91284,0,0,1,.54688,1.28613,1.94257,1.94257,0,0,1-1.86914,1.86914,1.88,1.88,0,0,1-1.32129-.58105l-0.06348-.06445a3.00831,3.00831,0,0,0-1.88672-.65723c-1.80957,0-2.7666,1.25391-2.7666,3.626V74.91406A1.77974,1.77974,0,0,1,207.26475,76.752Z" transform="translate(-83.79715 -27.06213)"/><path class="cls-5" d="M218.61436,76.80567a1.78057,1.78057,0,0,1-1.83887-1.83887V64.01953a1.8386,1.8386,0,0,1,3.67676,0V74.9668A1.78034,1.78034,0,0,1,218.61436,76.80567Zm0-21.85254a2.3457,2.3457,0,1,1,2.3457-2.3457A2.37819,2.37819,0,0,1,218.61436,54.95313Z" transform="translate(-83.79715 -27.06213)"/><path class="cls-5" d="M230.79209,77.22266a5.42461,5.42461,0,0,1-5.71289-5.36426V61.18262h-2.00586a1.83789,1.83789,0,0,1,0-3.67578h2.00586V54.35742a1.8376,1.8376,0,0,1,3.6748,0v3.14941h7.44043a1.83789,1.83789,0,1,1,0,3.67578H228.754V71.8584a1.75393,1.75393,0,0,0,2.03809,1.68652,2.92235,2.92235,0,0,0,1.73242-.64062,2.34816,2.34816,0,0,1,1.31641-.53418,1.865,1.865,0,0,1,.8457,3.53223A6.63762,6.63762,0,0,1,230.79209,77.22266Z" transform="translate(-83.79715 -27.06213)"/><path class="cls-5" d="M195.79307,83.10547a1.83838,1.83838,0,0,1,0-3.67676,3.36572,3.36572,0,0,0,3.40234-3.40234V75.3418a5.83621,5.83621,0,0,1-3.40234,1.09277,7.08559,7.08559,0,0,1-7.07812-7.07812V64.11524a7.07861,7.07861,0,1,1,14.15723,0V76.02637A7.08726,7.08726,0,0,1,195.79307,83.10547Zm0-22.39258a3.36572,3.36572,0,0,0-3.40234,3.40234v5.24121a3.40234,3.40234,0,1,0,6.80469,0V64.11524A3.36572,3.36572,0,0,0,195.79307,60.71289Z" transform="translate(-83.79715 -27.06213)"/></svg>