<svg xmlns="http://www.w3.org/2000/svg" width="160" height="41" viewBox="0 0 160 41">
    <defs>
        <radialGradient id="a" cx="-24.894%" cy="138.425%" r="115.491%" fx="-24.894%" fy="138.425%" gradientTransform="matrix(.691 0 0 1 -.077 0)">
            <stop offset="0%" stop-color="#F9B428" stop-opacity="0"/>
            <stop offset="100%" stop-color="#F68D13"/>
        </radialGradient>
        <radialGradient id="b" cx="-24.894%" cy="138.425%" r="115.491%" fx="-24.894%" fy="138.425%" gradientTransform="matrix(.691 0 0 1 -.077 0)">
            <stop offset="0%" stop-color="#EF670A" stop-opacity="0"/>
            <stop offset="100%" stop-color="#E73205"/>
        </radialGradient>
        <radialGradient id="c" cx="-24.894%" cy="138.425%" r="115.491%" fx="-24.894%" fy="138.425%" gradientTransform="matrix(.691 0 0 1 -.077 0)">
            <stop offset="0%" stop-color="#20AFE2" stop-opacity="0"/>
            <stop offset="100%" stop-color="#0F86D3"/>
        </radialGradient>
        <radialGradient id="d" cx="-24.894%" cy="138.425%" r="115.491%" fx="-24.894%" fy="138.425%" gradientTransform="matrix(.691 0 0 1 -.077 0)">
            <stop offset="0%" stop-color="#004E9B" stop-opacity="0"/>
            <stop offset="100%" stop-color="#00367C"/>
        </radialGradient>
    </defs>
    <g fill="none" fill-rule="nonzero">
        <path fill="#EF670A" d="M16.417 9.256V4.818a.587.587 0 1 0-1.173 0v6.78a3.516 3.516 0 0 1-3.512 3.53H9.389c1.562 0 2.343-.78 2.343-2.342V4.277a4.1 4.1 0 1 1 8.202 0V8.67c0 1.953.39 2.93 1.173 2.93H18.76c-1.562 0-2.343-.781-2.343-2.343z"/>
        <path fill="#20AFE2" d="M22.276 16.284h4.433a.587.587 0 0 0 0-1.173h-6.78a3.516 3.516 0 0 1-3.516-3.517V9.256c0 1.562.78 2.343 2.342 2.343h8.495a4.1 4.1 0 1 1 0 8.202h-4.392c-1.953 0-2.93.39-2.93 1.173v-2.342c0-1.565.783-2.348 2.348-2.348z"/>
        <path fill="#004E9B" d="M15.244 22.143v4.447a.587.587 0 0 0 1.173 0V19.8a3.516 3.516 0 0 1 3.517-3.516h2.342c-1.562 0-2.342.781-2.342 2.343v8.495a4.1 4.1 0 1 1-8.202 0V22.73c0-1.953-.391-2.93-1.174-2.93h2.343c1.562 0 2.343.781 2.343 2.343z"/>
        <path fill="#F9B428" d="M9.39 15.129H4.95a.587.587 0 0 0 0 1.174h6.78a3.516 3.516 0 0 1 3.517 3.516v2.343c0-1.562-.78-2.343-2.343-2.343h-8.5a4.1 4.1 0 0 1 0-8.202h4.397c1.953 0 2.93-.391 2.93-1.173v2.342c0 1.562-.781 2.343-2.343 2.343z"/>
        <path fill="url(#a)" d="M9.39 15.129H4.95v-3.512h3.851c1.953 0 2.93-.391 2.93-1.173v2.342c0 1.562-.781 2.343-2.343 2.343z"/>
        <path fill="url(#b)" d="M19.798 10.547H15.36V7.035h3.851c1.953 0 2.93-.391 2.93-1.174v2.343c0 1.562-.78 2.343-2.343 2.343z" transform="rotate(90 18.75 8.204)"/>
        <path fill="url(#c)" d="M24.38 20.96h-4.437V17.45h3.85c1.954 0 2.93-.392 2.93-1.174v2.343c0 1.562-.78 2.342-2.342 2.342z" transform="rotate(180 23.333 18.618)"/>
        <path fill="url(#d)" d="M13.958 25.538H9.52v-3.512h3.85c1.954 0 2.93-.39 2.93-1.173v2.342c0 1.562-.78 2.343-2.342 2.343z" transform="rotate(-90 12.91 23.195)"/>
        <g fill="#20AFE2">
            <path d="M44.771 5.922c0-1.267 1.005-2.11 2.292-2.11s2.292.843 2.292 2.11a2.296 2.296 0 0 1-4.584 0zm.604 9.509h3.296v16.16h-3.296v-16.16zM52.761 12.08h2.73l.284 2.81h.122c1.849-1.848 3.858-3.296 6.55-3.296 4.099 0 5.947 2.65 5.947 7.635v12.375h-3.296V19.673c0-3.656-1.127-5.226-3.697-5.226-2.01 0-3.377 1.047-5.344 3.014v14.143h-3.296V12.08zM72.172 14.785h-2.891v-2.49l3.051-.203.422-5.466h2.773v5.454h5.264v2.705h-5.28v10.847c0 2.41.763 3.778 3.013 3.778a7.095 7.095 0 0 0 2.212-.524l.641 2.49a12.054 12.054 0 0 1-3.617.722c-4.178 0-5.584-2.65-5.584-6.508V14.785h-.004z"/>
            <path d="M89.101 11.598c4.98 0 7.796 3.575 7.796 9.16a11.62 11.62 0 0 1-.119 1.806H83.593c.24 4.22 2.773 6.871 6.508 6.871a8.821 8.821 0 0 0 4.863-1.528l1.165 2.17A11.628 11.628 0 0 1 89.7 32.09c-5.225 0-9.361-3.799-9.361-10.206s4.3-10.286 8.762-10.286zm4.9 8.8c0-3.975-1.768-6.187-4.82-6.187-2.73 0-5.22 2.25-5.626 6.188h10.446zM99.826 30.92v-.16a3.604 3.604 0 0 1-1.726-3.174c0-1.646 1.122-2.933 2.11-3.617v-.16a6.913 6.913 0 0 1-2.532-5.263c0-4.259 3.376-6.952 7.352-6.952a7.796 7.796 0 0 1 2.773.481h6.791v2.533h-4.018a5.664 5.664 0 0 1 1.608 4.018c0 4.178-3.174 6.79-7.15 6.79a6.82 6.82 0 0 1-2.933-.683c-.684.604-1.266 1.266-1.266 2.33 0 1.266.801 2.11 3.456 2.11h3.778c4.541 0 6.829 1.406 6.829 4.643 0 3.617-3.799 6.753-9.885 6.753-4.782 0-8.074-1.887-8.074-5.263.034-1.612 1.118-3.178 2.887-4.385zm5.706 7.395c3.735 0 6.188-1.929 6.188-3.976 0-1.806-1.406-2.41-3.938-2.41h-3.377a9.51 9.51 0 0 1-2.532-.32c-1.406 1.004-2.01 2.17-2.01 3.296.005 2.085 2.115 3.41 5.67 3.41zm3.655-19.765c0-2.853-1.848-4.542-4.136-4.542-2.288 0-4.14 1.689-4.14 4.542 0 2.853 1.886 4.643 4.14 4.643 2.254 0 4.136-1.794 4.136-4.643zM116.097 12.08h2.73l.283 3.537h.122c1.326-2.453 3.335-4.019 5.546-4.019a4.854 4.854 0 0 1 2.11.422l-.64 2.892a5.487 5.487 0 0 0-1.887-.321c-1.646 0-3.618 1.207-4.943 4.5v12.535h-3.296V12.08h-.025zM126.88 5.922c0-1.267 1.005-2.11 2.292-2.11s2.292.843 2.292 2.11a2.296 2.296 0 0 1-4.584 0zm.604 9.509h3.296v16.16h-3.296v-16.16zM134.87 14.785h-2.891v-2.49l3.051-.203.423-5.466h2.773v5.454h5.242v2.705h-5.264v10.847c0 2.41.764 3.778 3.014 3.778a7.095 7.095 0 0 0 2.212-.524l.641 2.49a12.054 12.054 0 0 1-3.617.722c-4.178 0-5.584-2.65-5.584-6.508V14.785z"/>
            <path d="M144.962 37.273c2.211 0 3.617-1.769 4.419-4.179l.422-1.447-7.813-19.567h3.415l3.976 10.809c.603 1.688 1.266 3.697 1.886 5.487h.16c.562-1.769 1.128-3.778 1.647-5.487l3.495-10.81h3.233l-7.353 21.133c-1.367 3.858-3.376 6.792-7.314 6.792a6.483 6.483 0 0 1-2.292-.423l.641-2.612c.477.166.974.268 1.478.304z"/>
        </g>
    </g>
</svg>
